<svg width="169" height="36" viewBox="0 0 169 36" fill="none" xmlns="http://www.w3.org/2000/svg">
<g clip-path="url(#clip0_4711_2993)">
<path d="M21.7087 14.1487C20.5509 15.4283 19.0561 16.3558 17.3955 16.8249C15.2262 17.422 12.9814 17.6989 10.7321 17.6468C6.85585 17.6468 4.09812 17.0898 2.45887 15.9759C0.819624 14.8619 0 13.5034 0 11.9004C0.0100278 10.7473 0.415208 9.63242 1.14793 8.74192C1.98773 7.6928 3.05037 6.84362 4.25887 6.25588C5.47736 5.61362 6.78443 5.1558 8.13736 4.89739C9.61151 4.64768 11.1049 4.52948 12.6 4.54419C16.2725 4.54419 18.9057 5.05135 20.4996 6.06569C22.0891 7.08456 22.8906 8.32759 22.8906 9.80834C22.821 10.6627 22.6523 11.5061 22.3879 12.3215H7.33585C7.55321 14.0151 8.75095 14.8597 10.9291 14.8551C12.2054 14.9207 13.4616 14.5172 14.4611 13.7208L21.7087 14.1487ZM15.4189 9.99853C15.5168 9.77168 15.561 9.52527 15.5479 9.27853C15.5536 8.97405 15.4706 8.67448 15.309 8.41637C15.1474 8.15826 14.9141 7.95276 14.6377 7.82494C13.9455 7.47739 13.1771 7.30922 12.403 7.33588C11.498 7.33212 10.6078 7.56636 9.82189 8.01512C9.02565 8.4735 8.39541 9.17272 8.02189 10.0121L15.4189 9.99853Z" fill="#333333"/>
<path d="M36.2784 9.12903L35.0218 12.8377H24.0928L25.3494 9.12903H36.2784Z" fill="#333333"/>
<path d="M53.6131 4.80911L52.4787 8.29364H48.5731L47.1059 12.7155C47.0035 12.903 46.9498 13.1132 46.9497 13.3269C46.9497 13.8974 47.5406 14.1895 48.7089 14.1895C49.0757 14.1895 49.8568 14.1148 51.0387 13.9721L49.9112 17.3683C47.647 17.5676 45.9829 17.6672 44.9187 17.6672C42.8131 17.6672 41.3187 17.3435 40.4357 16.6959C40.056 16.4791 39.7342 16.1738 39.4977 15.8061C39.2612 15.4383 39.117 15.0189 39.0772 14.5835C39.1874 13.8872 39.3695 13.2043 39.6206 12.5457L41.0402 8.26647H38.3232L39.4304 4.81591H42.1474L42.8266 2.85968L51.2968 0.1427L49.7617 4.78194L53.6131 4.80911Z" fill="#333333"/>
<path d="M78.1195 4.8023L65.6554 18.9306C64.7002 20.0959 63.5046 21.0412 62.1505 21.7019C60.8498 22.1937 59.4649 22.4245 58.075 22.3812C56.2234 22.3826 54.3753 22.2189 52.5527 21.8921L53.1641 18.6657C53.9654 18.8696 54.7892 18.9723 55.6161 18.9714C56.2857 18.9969 56.9513 18.8593 57.5559 18.5706C58.1606 18.2819 58.686 17.8507 59.0871 17.314L55.3105 4.77515H62.7007L63.7467 13.4831H63.8214L70.5188 4.77515L78.1195 4.8023Z" fill="#333333"/>
<path d="M87.5477 6.13355C88.4436 5.59518 89.4076 5.17939 90.4141 4.89732C91.4201 4.66264 92.4513 4.55313 93.4843 4.57127C95.6941 4.57127 97.3854 5.03995 98.5582 5.97731C99.1323 6.42199 99.592 6.99724 99.8992 7.65526C100.206 8.31327 100.352 9.03507 100.324 9.76071C100.317 10.8241 100.075 11.8729 99.6163 12.8321C99.1572 13.7914 98.4921 14.6375 97.6684 15.3101C95.8112 16.9198 93.4136 17.7667 90.9575 17.6807C88.2043 17.6807 86.1235 17.0218 84.7152 15.7041L82.5348 22.1366H75.0088L80.8571 4.83619H87.8465L87.4797 6.11995L87.5477 6.13355ZM88.9741 14.4135C89.5191 14.4097 90.0565 14.286 90.5484 14.0512C91.0402 13.8165 91.4744 13.4764 91.8201 13.0551C92.6096 12.1683 93.0343 11.0156 93.0088 9.82864C93.036 9.50922 92.9803 9.18817 92.847 8.89661C92.7138 8.60505 92.5074 8.35286 92.248 8.16448C91.7039 7.81504 91.0673 7.63752 90.4209 7.65505C89.802 7.62247 89.1846 7.74159 88.6223 8.00203C88.06 8.26247 87.5698 8.65634 87.1944 9.1494C86.4929 10.0114 86.0965 11.0814 86.0669 12.1924C86.0501 12.5218 86.1234 12.8496 86.279 13.1404C86.4346 13.4313 86.6665 13.6742 86.9499 13.843C87.5585 14.2169 88.2599 14.4122 88.9741 14.4068V14.4135Z" fill="#333333"/>
<path d="M113.95 4.80225L109.766 17.3411H102.206L106.39 4.80225H113.95ZM115.553 0L114.446 3.31472H106.927L107.993 0H115.553Z" fill="#333333"/>
<path d="M125.334 6.75168C127.558 5.23008 130.208 4.45463 132.901 4.53734C134.285 4.44644 135.667 4.74778 136.888 5.40677C137.282 5.60939 137.616 5.91292 137.854 6.2864C138.093 6.65989 138.228 7.08997 138.246 7.53281C138.129 8.55228 137.88 9.55228 137.506 10.5079L135.244 17.3411H127.664L129.606 11.5268C129.897 10.7308 130.124 9.91318 130.286 9.08149C130.286 8.40224 129.797 8.03545 128.812 8.03545C127.76 8.01614 126.734 8.36986 125.918 9.03394C125.032 9.79315 124.385 10.7938 124.057 11.9139L122.23 17.3479H114.649L118.861 4.80903H125.911L125.266 6.71093L125.334 6.75168Z" fill="#333333"/>
<path d="M164.513 4.8022L160.573 16.6143C159.79 18.9328 158.563 20.4769 156.892 21.2467C155.221 22.0166 152.785 22.4037 149.583 22.4082C147.833 22.4443 146.082 22.3238 144.353 22.0482C143.182 21.8401 142.084 21.3376 141.161 20.5879C140.767 20.3158 140.441 19.958 140.205 19.5416C139.97 19.1251 139.832 18.6607 139.802 18.1833C139.796 17.9878 139.81 17.7921 139.843 17.5992L147.009 18.2784C147.077 19.1615 147.81 19.6369 149.196 19.6369C150.001 19.668 150.797 19.4549 151.478 19.0256C152.124 18.5841 152.603 17.9381 152.837 17.1916L153.482 15.3101L153.407 15.2694C151.68 16.3935 149.654 16.971 147.593 16.9267C145.884 17.0178 144.193 16.5401 142.784 15.5682C142.216 15.1597 141.757 14.619 141.446 13.9928C141.135 13.3667 140.981 12.6741 140.998 11.975C140.998 9.97806 141.933 8.24597 143.803 6.7788C145.852 5.24797 148.365 4.46852 150.921 4.57125C153.099 4.49405 155.227 5.23562 156.885 6.64974L157.496 4.83617L164.513 4.8022ZM151.016 13.6664C151.619 13.7074 152.222 13.5986 152.772 13.3497C153.322 13.1008 153.801 12.7195 154.168 12.2399C154.807 11.4735 155.179 10.5197 155.228 9.52296C155.225 9.26261 155.155 9.00748 155.022 8.78329C154.89 8.55909 154.701 8.37375 154.474 8.24597C153.929 7.89853 153.292 7.72337 152.647 7.74334C152.085 7.73762 151.527 7.84535 151.008 8.0601C150.489 8.27485 150.018 8.59221 149.624 8.99315C149.229 9.3405 148.911 9.76635 148.69 10.2435C148.469 10.7207 148.35 11.2387 148.34 11.7645C148.337 12.0369 148.405 12.3054 148.537 12.5436C148.669 12.7818 148.861 12.9814 149.094 13.123C149.666 13.4927 150.336 13.682 151.016 13.6664V13.6664Z" fill="#333333"/>
<path d="M74.6699 35.4023V26.5721H76.7688V27.8491C77.2647 27.3789 77.8552 27.02 78.5009 26.7963C79.2931 26.5206 80.1278 26.3872 80.9665 26.4023C81.8249 26.3748 82.6806 26.5132 83.4865 26.8099C84.0573 27.026 84.5367 27.4311 84.845 27.9578C86.0145 26.893 87.5577 26.3338 89.1378 26.4023C90.2444 26.3351 91.3471 26.5849 92.3167 27.1223C92.6822 27.3638 92.9773 27.6978 93.1717 28.0903C93.3662 28.4829 93.4532 28.92 93.4239 29.3571V35.3955H91.0941V29.8665C91.1246 29.4267 91.0477 28.9861 90.8699 28.5827C90.6681 28.2892 90.3777 28.0679 90.0412 27.951C89.5901 27.7812 89.1103 27.7004 88.6284 27.7133C87.7784 27.6818 86.937 27.8939 86.2035 28.3246C85.882 28.539 85.6232 28.835 85.4537 29.1824C85.2843 29.5297 85.2102 29.9158 85.239 30.3012V35.3955H82.882V29.6967C82.9034 29.4219 82.8633 29.1458 82.7646 28.8885C82.6659 28.6312 82.5111 28.3991 82.3114 28.2091C81.7667 27.8289 81.1051 27.6533 80.4435 27.7133C79.8194 27.7068 79.1997 27.8174 78.6163 28.0393C78.115 28.217 77.6888 28.5594 77.4073 29.0106C77.1218 29.578 76.9906 30.2105 77.0269 30.8446V35.3955L74.6699 35.4023Z" fill="#2399E1"/>
<path d="M108.557 34.3155C107.779 34.752 106.945 35.081 106.078 35.2936C105.227 35.4891 104.356 35.5848 103.483 35.5789C102.27 35.6535 101.057 35.4198 99.9579 34.8997C99.6036 34.7468 99.3 34.4965 99.0823 34.1779C98.8647 33.8592 98.742 33.4853 98.7285 33.0996C98.732 32.6623 98.8964 32.2416 99.1904 31.9178C99.5294 31.5454 99.9471 31.253 100.413 31.0619C100.957 30.8383 101.524 30.6766 102.104 30.5796C102.573 30.4981 103.266 30.4234 104.203 30.3555C105.617 30.2768 107.024 30.1044 108.415 29.8393C108.415 29.6355 108.415 29.5064 108.415 29.4521C108.436 29.1947 108.383 28.9365 108.263 28.7079C108.142 28.4794 107.96 28.2898 107.735 28.1615C106.9 27.7784 105.983 27.6058 105.066 27.6589C104.243 27.6006 103.417 27.7139 102.641 27.9917C102.366 28.1302 102.122 28.3214 101.921 28.5545C101.721 28.7877 101.568 29.058 101.473 29.3502L99.1157 29.1261C99.3019 28.5318 99.6614 28.0067 100.148 27.6181C100.754 27.1759 101.45 26.8721 102.186 26.7283C103.22 26.5116 104.274 26.4091 105.331 26.4227C106.3 26.4018 107.268 26.4906 108.218 26.6876C108.802 26.7993 109.357 27.0306 109.848 27.3668C110.189 27.6218 110.445 27.9749 110.581 28.3789C110.675 28.8253 110.714 29.2815 110.697 29.7374V31.714C110.663 32.5927 110.711 33.4727 110.839 34.3427C110.944 34.7371 111.134 35.1036 111.396 35.4159H108.992C108.754 35.0927 108.605 34.7137 108.557 34.3155V34.3155ZM108.421 30.994C107.146 31.2726 105.852 31.4587 104.55 31.551C103.864 31.5979 103.183 31.6955 102.512 31.8431C102.164 31.9217 101.841 32.0877 101.575 32.3253C101.475 32.4092 101.394 32.5129 101.337 32.6299C101.279 32.7468 101.247 32.8744 101.242 33.0046C101.256 33.22 101.332 33.427 101.459 33.6013C101.586 33.7756 101.761 33.9102 101.962 33.9894C102.62 34.2874 103.339 34.4226 104.061 34.3834C104.886 34.3941 105.708 34.2679 106.492 34.0098C107.101 33.8259 107.644 33.4697 108.055 32.9842C108.341 32.551 108.477 32.0353 108.442 31.517L108.421 30.994Z" fill="#2399E1"/>
<path d="M116.11 32.7465L118.427 32.5291C118.491 32.8228 118.622 33.0978 118.81 33.3332C118.997 33.5686 119.235 33.7583 119.507 33.8876C121.068 34.4998 122.8 34.5216 124.377 33.9487C124.893 33.6725 125.151 33.3465 125.151 32.9706C125.151 32.631 124.927 32.3661 124.472 32.1759C123.694 31.9359 122.896 31.7676 122.088 31.6733C120.888 31.5017 119.7 31.2613 118.528 30.9533C117.961 30.812 117.441 30.5239 117.021 30.1178C116.86 29.9666 116.732 29.7846 116.643 29.5827C116.554 29.3809 116.507 29.1632 116.504 28.9427C116.505 28.5408 116.655 28.1536 116.925 27.8559C117.239 27.4951 117.632 27.2116 118.073 27.0272C118.547 26.8212 119.044 26.6752 119.554 26.5925C120.226 26.4676 120.908 26.4085 121.592 26.4159C122.549 26.4002 123.505 26.5005 124.438 26.7148C125.097 26.8381 125.716 27.1176 126.245 27.5299C126.647 27.8893 126.929 28.3635 127.053 28.8884L124.778 29.1057C124.721 28.8683 124.61 28.6469 124.455 28.4585C124.3 28.2702 124.103 28.1198 123.881 28.0189C123.22 27.7229 122.498 27.5879 121.775 27.625C120.995 27.5743 120.212 27.69 119.479 27.9646C119.024 28.1887 118.8 28.4536 118.8 28.7525C118.805 28.8556 118.833 28.9563 118.882 29.047C118.932 29.1376 119.001 29.2158 119.085 29.2755C119.352 29.4719 119.658 29.6085 119.982 29.6763C120.213 29.7306 120.899 29.8529 122.02 30.0499C123.668 30.3352 124.818 30.5616 125.47 30.7291C126.037 30.8642 126.563 31.1319 127.005 31.5102C127.185 31.6689 127.328 31.8647 127.424 32.084C127.52 32.3033 127.567 32.541 127.562 32.7804C127.551 33.0486 127.484 33.3116 127.368 33.5534C127.251 33.7951 127.086 34.0105 126.883 34.1865C126.319 34.6795 125.643 35.027 124.913 35.1985C123.966 35.4524 122.987 35.5736 122.006 35.5586C120.611 35.6301 119.218 35.3863 117.931 34.8453C117.493 34.6488 117.103 34.3592 116.789 33.9967C116.475 33.6343 116.243 33.2076 116.11 32.7465V32.7465Z" fill="#2399E1"/>
<path d="M138.07 34.105L138.376 35.4295C137.791 35.5133 137.201 35.5587 136.61 35.5653C135.939 35.5901 135.268 35.5029 134.626 35.3072C134.235 35.1892 133.891 34.9517 133.641 34.628C133.39 34.0752 133.289 33.4661 133.349 32.8619V27.788H131.604V26.6333H133.349V24.4529L135.713 23.5563V26.6333H138.07V27.8151H135.713V32.9366C135.686 33.2143 135.728 33.4942 135.835 33.7518C135.938 33.8885 136.08 33.9905 136.243 34.0438C136.5 34.1221 136.769 34.1566 137.037 34.1457C137.282 34.105 137.642 34.105 138.07 34.105Z" fill="#2399E1"/>
<path d="M152.47 32.5223L154.943 32.7465C154.523 33.686 153.767 34.4347 152.824 34.8453C151.575 35.3817 150.222 35.6346 148.864 35.5857C147.176 35.6748 145.5 35.2611 144.048 34.397C143.485 34.0487 143.025 33.5582 142.712 32.9751C142.4 32.3919 142.247 31.7367 142.268 31.0755C142.243 30.3956 142.397 29.7209 142.712 29.1182C143.028 28.5155 143.495 28.0055 144.068 27.6385C145.463 26.7708 147.087 26.3447 148.728 26.4159C150.328 26.3433 151.911 26.7629 153.265 27.6182C153.829 27.9815 154.288 28.4861 154.597 29.082C154.906 29.6778 155.053 30.344 155.024 31.0144C155.024 31.1027 155.024 31.2385 155.024 31.4151H144.639C144.665 31.8579 144.795 32.2882 145.019 32.6707C145.244 33.0533 145.556 33.3772 145.929 33.6159C146.795 34.1554 147.803 34.4227 148.823 34.3834C149.58 34.4062 150.332 34.2576 151.024 33.9487C151.647 33.6411 152.154 33.1409 152.47 32.5223V32.5223ZM144.754 30.1653H152.498C152.469 29.842 152.377 29.5275 152.225 29.2406C152.073 28.9536 151.866 28.6999 151.615 28.4944C150.77 27.8883 149.746 27.5845 148.707 27.6317C147.756 27.5991 146.815 27.8345 145.99 28.311C145.649 28.4965 145.358 28.7622 145.143 29.0853C144.928 29.4084 144.794 29.7791 144.754 30.1653V30.1653Z" fill="#2399E1"/>
<path d="M160.492 35.4023V26.5721H162.632V27.9306C163.023 27.4187 163.521 26.999 164.092 26.7012C164.555 26.501 165.055 26.4014 165.559 26.4091C166.366 26.4139 167.166 26.5682 167.916 26.8642L167.115 28.2227C166.574 28.0407 166.008 27.9467 165.437 27.9442C164.968 27.9335 164.502 28.0335 164.079 28.2363C163.707 28.4038 163.405 28.694 163.223 29.0582C162.962 29.6003 162.829 30.1953 162.836 30.797V35.4091L160.492 35.4023Z" fill="#2399E1"/>
</g>
<defs>
<clipPath id="clip0_4711_2993">
<rect width="168.453" height="36" fill="white"/>
</clipPath>
</defs>
</svg>
